<svg xmlns="http://www.w3.org/2000/svg" viewBox="0 0 884 279" fill="currentColor" fill-rule="evenodd"><path d="M228 145.5 219 145.5 215 143.5 203.5 129 189 114.5 173 103.5 151 94.5 132 90.5 121 90.5 120 89.5 30 89.5 29.5 133 28.5 136 24.5 142 19 145.5 10 145.5 6 143.5 2.5 140 -0.5 133 -0.5 38 2.5 26 6.5 18 16 7.5 24 2.5 30 0.5 204 0.5 213 3.5 222 9.5 228.5 16 232.5 22 236.5 32 237.5 50 235.5 54 228 60.5 223 60.5 222 61.5 216 59.5 210.5 54 208.5 50 206.5 38 199 32.5 36 32.5 29.5 38 29.5 56 123 57.5 124 58.5 132 58.5 133 59.5 139 59.5 155 62.5 179 70.5 196 79.5 207 87.5 223.5 104 232.5 116 237.5 125 237.5 135 235.5 139ZM287 145.5 278 145.5 274 143.5 270.5 140 267.5 133 267.5 13 270.5 6 278 0.5 288 0.5 294.5 6 297.5 12 297.5 134 294.5 140ZM562 145.5 350 145.5 341 141.5 332.5 133 328.5 125 327.5 106 329.5 99 333.5 92 342 84.5 394 71.5 398 69.5 429 62.5 433 60.5 460 54.5 464 52.5 491 46.5 495 44.5 518 39.5 523 37.5 524.5 35 519 32.5 338 32.5 334 30.5 328.5 24 327.5 11 329.5 7 337 0.5 550 0.5 559 4.5 566.5 12 570.5 19 572.5 26 572.5 39 570.5 46 566.5 53 557 61.5 530 69.5 515 72.5 511 74.5 380 107.5 375 109.5 373.5 112 379 113.5 562 113.5 569.5 119 572.5 125 571.5 137 566 143.5ZM718 152.5 705 152.5 698 150.5 689 145.5 677.5 133 676.5 130 603.5 24 602.5 11 604.5 7 610 1.5 612 0.5 622 0.5 628.5 5 699.5 110 709 118.5 714 118.5 720.5 113 793.5 6 801 0.5 810 0.5 813 1.5 818.5 7 820.5 11 819.5 24 752.5 123 743.5 136 735 144.5 725 150.5ZM870 145.5 858 144.5 852.5 139 850.5 135 850.5 11 851.5 8 860 0.5 870 0.5 874 2.5 877.5 6 880.5 13 880.5 133 877.5 140ZM23 277.5 -0.5 277 1 273.5 6.5 272 6.5 239 0 238.5 -0.5 236 6.5 235 6.5 226 8.5 222 14 216.5 22 213.5 27 213.5 31 214.5 33.5 217 34.5 219 32 222.5 28 222.5 23 218.5 19 218.5 15.5 223 15.5 234 17 235.5 24.5 236 24 238.5 17 238.5 15.5 240 15.5 271 17 272.5 22 273.5 23.5 275ZM287 277.5 264.5 277 266 273.5 271.5 272 271.5 243 268 239.5 258 240.5 250.5 246 250.5 272 256 273.5 257.5 277 234.5 277 235 273.5 241.5 272 241.5 222 235 221.5 234.5 219 236 217.5 244 215.5 250.5 216 251 240.5 254 237.5 259 235.5 273 234.5 280.5 241 280.5 272 287 273.5ZM726 277.5 702.5 277 704 273.5 709.5 272 709.5 223 708 221.5 704 222.5 702.5 221 702.5 219 705 217.5 713 215.5 719.5 216 719.5 272 726 273.5ZM883 277.5 869 277.5 868 273.5 861 277.5 848 277.5 844 275.5 838.5 270 835.5 264 835.5 250 837.5 245 843 238.5 852 234.5 860 234.5 868.5 238 868.5 223 861.5 222 860.5 219 863 217.5 871 215.5 877.5 216 877.5 272 879 273.5 882.5 274 883.5 275ZM789 277.5 775 276.5 770.5 271 770.5 239 764 238.5 763.5 236 771.5 232 774.5 226 775 219.5 780.5 220 781 235.5 792.5 236 792 238.5 780.5 239 780.5 270 783 273.5 788 273.5 792 270.5 795 270.5 796.5 272ZM341 231.5 337 231.5 333.5 228 333.5 224 337 220.5 341 220.5 344.5 225 344.5 228ZM116 277.5 104 277.5 99 272.5 89 277.5 78 277.5 74 275.5 69.5 270 71.5 262 75 258.5 81 255.5 87 253.5 98 252.5 98.5 243 95 239.5 92 238.5 83 239.5 80.5 242 80.5 247 78 249.5 75 249.5 71.5 246 72.5 242 77 237.5 86 234.5 96 234.5 102 236.5 107.5 242 107.5 271 109 272.5 115 273.5 116.5 275ZM184 277.5 171 277.5 165 274.5 162 277.5 159.5 277 157 261.5 160 261.5 165 269.5 173 273.5 182 273.5 187.5 268 187.5 265 185 262.5 181 260.5 167 257.5 163 255.5 158.5 251 157.5 248 158.5 243 166 235.5 179 234.5 185 237.5 187 235.5 189 235.5 190.5 238 192 248.5 189 248.5 182 240.5 177 238.5 171 238.5 167 240.5 165.5 243 169 248.5 189 253.5 195.5 260 195.5 267 193.5 271 190 274.5ZM417 277.5 403 277.5 396 273.5 392.5 270 389.5 264 388.5 254 390.5 246 393.5 241 401 235.5 404 234.5 419 235.5 423 237.5 428.5 243 430.5 247 431.5 250 430.5 265 428.5 269 423 274.5ZM524 277.5 501.5 277 503 273.5 508.5 272 508.5 245 504 239.5 498 239.5 486.5 246 486.5 272 492 273.5 493.5 277 471 277.5 470.5 275 472 273.5 477.5 272 477.5 242 471 241.5 470.5 239 480 235.5 486 235.5 487 240.5 491 237.5 499 234.5 508 234.5 513 236.5 517.5 242 517.5 272 523 273.5 524.5 275ZM590 277.5 577 277.5 572 274.5 569 277.5 565.5 276 563.5 266 564 261.5 567 261.5 569.5 267 573 270.5 579 273.5 588 273.5 593.5 270 593.5 264 592 262.5 588 260.5 574 257.5 568 254.5 564.5 250 564.5 244 566.5 240 573 235.5 586 234.5 592 237.5 594 235.5 596.5 236 599 248.5 596 248.5 589 240.5 583 238.5 575 239.5 572.5 243 572.5 245 576 248.5 593 252.5 597 254.5 601.5 259 602.5 266 600.5 271 595 275.5ZM349 277.5 326.5 277 328 273.5 334.5 272 334.5 242 333 240.5 327 240.5 326.5 238 328 236.5 343.5 236 343.5 272 349 273.5 350.5 275ZM412.5 274 415 273.5 420.5 267 421.5 264 421.5 249 417 240.5 414 238.5 407 238.5 400.5 244 398.5 251 398.5 262 399.5 266 403 271.5 409 274.5ZM860.5 273 864 271.5 868.5 267 868.5 245 867 242.5 861 239.5 855 239.5 850 241.5 846.5 247 845.5 263 847.5 268 852 272.5 854 273.5ZM88.5 273 94 271.5 98.5 268 98 256.5 88 257.5 84 259.5 79.5 264 80.5 271 86 273.5Z"/></svg>